<svg xmlns="http://www.w3.org/2000/svg" viewBox="0 0 32 32">
  <rect width="32" height="32" rx="6" fill="#7AB55C"/>
  <path d="M19.5 8.5l-2.8.7c-.2-.7-.7-1.2-1.4-1.2-.5 0-.9.3-1.2.8l-1.9.5c-.3.1-.4.3-.4.5l-.8 11.2 9.5 1.8 4.2-1.2L19.5 8.5z" fill="#FFFFFF"/>
  <path d="M16 11.5c-1.5 0-2.2 1-2.2 2 0 1.8 2.6 2 2.6 3.3 0 .7-.6 1-1.3 1-.9 0-1.6-.4-2-.8l-.5 1.5c.6.5 1.5.8 2.5.8 1.8 0 2.8-1 2.8-2.3 0-1.8-2.6-2.1-2.6-3.2 0-.5.4-.8 1-.8.7 0 1.2.3 1.5.6l.6-1.4c-.6-.4-1.4-.7-2.4-.7z" fill="#263746"/>
</svg>
